<svg width="16" height="16" viewBox="0 0 16 16" fill="none" xmlns="http://www.w3.org/2000/svg">
    <path d="M8.11863 2.41331C8.75875 1.48853 9.80974 1 10.9661 1C13.1683 1 15 2.9371 15 5.23992C15 5.30559 14.9989 5.3553 14.9981 5.39187C14.9969 5.44208 14.9964 5.46752 15 5.47548C14.9916 5.95983 14.9092 6.36003 14.7627 6.88879C14.6796 6.98373 14.6024 7.16254 14.5254 7.35989C14.4041 7.55102 14.3581 7.64362 14.2881 7.83099C14.2713 7.85967 14.2542 7.88838 14.2369 7.91711C13.6231 8.93528 12.7318 9.96062 11.8471 10.8551C10.6332 12.0904 9.40695 13.1153 8.86921 13.5648C8.71862 13.6906 8.62202 13.7714 8.59482 13.799C8.39655 14 8.19828 14 8.00001 14C7.99952 14 7.99904 14 7.99855 14C7.60297 13.9995 7.40494 13.7987 7.20691 13.5979C7.19235 13.5832 7.1561 13.5527 7.10089 13.5079C6.49437 13.0552 5.10396 11.9283 3.81185 10.5733C2.86417 9.58804 1.95778 8.46483 1.45712 7.36598C1.25885 6.96392 1.01148 6.00666 1 5.47548C1.00422 5.47122 1.00357 5.44564 1.00226 5.39457C1.0013 5.3572 1 5.3062 1 5.23992C1 2.93604 2.83062 1 5.03389 1C6.18815 1 7.24019 1.48853 8.11863 2.41331Z" fill="#4F5168"/>
</svg>
